<svg class="svg-icon" style="width: 1em; height: 1em;vertical-align: middle;fill: currentColor;overflow: hidden;" viewBox="0 0 1024 1024" version="1.1" xmlns="http://www.w3.org/2000/svg"><path d="M512 341.333333c-94.293333 0-170.666667 76.373333-170.666667 170.666667s76.373333 170.666667 170.666667 170.666667 170.666667-76.373333 170.666667-170.666667-76.373333-170.666667-170.666667-170.666667z m381.44 128A383.744 383.744 0 0 0 554.666667 130.56V85.333333c0-23.466667-19.2-42.666667-42.666667-42.666666s-42.666667 19.2-42.666667 42.666666v45.226667A383.744 383.744 0 0 0 130.56 469.333333H85.333333c-23.466667 0-42.666667 19.2-42.666666 42.666667s19.2 42.666667 42.666666 42.666667h45.226667A383.744 383.744 0 0 0 469.333333 893.44V938.666667c0 23.466667 19.2 42.666667 42.666667 42.666666s42.666667-19.2 42.666667-42.666666v-45.226667A383.744 383.744 0 0 0 893.44 554.666667H938.666667c23.466667 0 42.666667-19.2 42.666666-42.666667s-19.2-42.666667-42.666666-42.666667h-45.226667zM512 810.666667c-165.12 0-298.666667-133.546667-298.666667-298.666667s133.546667-298.666667 298.666667-298.666667 298.666667 133.546667 298.666667 298.666667-133.546667 298.666667-298.666667 298.666667z"  /></svg>